<svg xmlns="http://www.w3.org/2000/svg" width="1200" height="620" viewBox="0 0 1200 620">
  <rect width="1200" height="620" fill="#fbfaf6"/>
  <style>
    text { font-family: DejaVu Sans, Arial, sans-serif; fill: #14213d; }
    .title { font-size: 30px; font-weight: 700; }
    .subtitle { font-size: 18px; fill: #485163; }
    .small { font-size: 15px; }
    .value { font-size: 16px; font-weight: 700; }
    .axis { font-size: 19px; font-weight: 700; }
  </style>
  <text x="600.0" y="38" text-anchor="middle" class="title">Détection d'anomalies: ligne vs événement</text>
  <text x="600.0" y="66" text-anchor="middle" class="subtitle">Scoring événement: k=5 pour segments non ponctuels, k=1 pour pics/drops</text>
  <line x1="92" y1="492.0" x2="1158" y2="492.0" stroke="#d8dee9" stroke-width="1"/><text x="80" y="498.0" text-anchor="end" class="small">0.00</text><line x1="92" y1="392.0" x2="1158" y2="392.0" stroke="#d8dee9" stroke-width="1"/><text x="80" y="398.0" text-anchor="end" class="small">0.25</text><line x1="92" y1="292.0" x2="1158" y2="292.0" stroke="#d8dee9" stroke-width="1"/><text x="80" y="298.0" text-anchor="end" class="small">0.50</text><line x1="92" y1="192.0" x2="1158" y2="192.0" stroke="#d8dee9" stroke-width="1"/><text x="80" y="198.0" text-anchor="end" class="small">0.75</text><line x1="92" y1="92.0" x2="1158" y2="92.0" stroke="#d8dee9" stroke-width="1"/><text x="80" y="98.0" text-anchor="end" class="small">1.00</text>
  <line x1="92" y1="92" x2="92" y2="492" stroke="#14213d" stroke-width="2"/>
  <line x1="92" y1="492" x2="1158" y2="492" stroke="#14213d" stroke-width="2"/>
  <text x="28" y="310.0" text-anchor="middle" transform="rotate(-90 28 310.0)" class="axis">F1</text>
  <rect x="92.0" y="353.1" width="89.8" height="138.9" fill="#2f80ed" rx="5"/><text x="136.9" y="346.1" text-anchor="middle" class="value">0.347</text><rect x="189.8" y="307.4" width="89.8" height="184.6" fill="#d9822b" rx="5"/><text x="234.7" y="300.4" text-anchor="middle" class="value">0.462</text><text x="185.8" y="524" text-anchor="middle" class="small">seasonal naive</text><rect x="311.6" y="336.8" width="89.8" height="155.2" fill="#2f80ed" rx="5"/><text x="356.5" y="329.8" text-anchor="middle" class="value">0.388</text><rect x="409.4" y="318.1" width="89.8" height="173.9" fill="#d9822b" rx="5"/><text x="454.3" y="311.1" text-anchor="middle" class="value">0.435</text><text x="405.4" y="524" text-anchor="middle" class="small">prophet default</text><rect x="531.2" y="333.3" width="89.8" height="158.7" fill="#2f80ed" rx="5"/><text x="576.1" y="326.3" text-anchor="middle" class="value">0.397</text><rect x="629.0" y="301.5" width="89.8" height="190.5" fill="#d9822b" rx="5"/><text x="673.9" y="294.5" text-anchor="middle" class="value">0.476</text><text x="625.0" y="524" text-anchor="middle" class="small">prophet tuned</text><rect x="750.8" y="329.3" width="89.8" height="162.7" fill="#2f80ed" rx="5"/><text x="795.7" y="322.3" text-anchor="middle" class="value">0.407</text><rect x="848.6" y="292.0" width="89.8" height="200.0" fill="#d9822b" rx="5"/><text x="893.5" y="285.0" text-anchor="middle" class="value">0.500</text><text x="844.6" y="524" text-anchor="middle" class="small">lightgbm lag features</text><rect x="970.4" y="414.7" width="89.8" height="77.3" fill="#2f80ed" rx="5"/><text x="1015.3" y="407.7" text-anchor="middle" class="value">0.193</text><rect x="1068.2" y="302.9" width="89.8" height="189.1" fill="#d9822b" rx="5"/><text x="1113.1" y="295.9" text-anchor="middle" class="value">0.473</text><text x="1064.2" y="524" text-anchor="middle" class="small">lstm autoencoder</text>
  
  <rect x="92" y="548" width="24" height="10" rx="4" fill="#2f80ed"/><text x="126" y="558" class="small">F1 ligne</text>
  <rect x="258" y="548" width="24" height="10" rx="4" fill="#d9822b"/><text x="292" y="558" class="small">F1 événement</text>

</svg>
